<svg width="1280" height="367" viewBox="0 0 1280 367" fill="none" xmlns="http://www.w3.org/2000/svg">
<path d="M178.5 139L186.05 103.5H201.05C202.85 103.5 204.383 103.967 205.65 104.9C206.917 105.833 207.883 107.05 208.55 108.55C209.25 110.05 209.6 111.633 209.6 113.3C209.6 114.6 209.383 115.883 208.95 117.15C208.55 118.383 207.967 119.55 207.2 120.65C206.433 121.75 205.533 122.733 204.5 123.6C203.5 124.467 202.4 125.15 201.2 125.65L206 139H198.2L194 127.1H187.85L185.35 139H178.5ZM197.1 121.05C197.8 121.05 198.467 120.867 199.1 120.5C199.733 120.1 200.3 119.583 200.8 118.95C201.333 118.283 201.75 117.533 202.05 116.7C202.35 115.833 202.5 114.933 202.5 114C202.5 113.133 202.35 112.367 202.05 111.7C201.783 111.033 201.4 110.517 200.9 110.15C200.433 109.75 199.9 109.55 199.3 109.55H191.6L189.15 121.05H197.1ZM218.13 103.5H241.13L239.88 109.55H223.68L221.88 118.1H235.83L234.63 123.7H220.68L218.73 132.95H235.33L234.03 139H210.58L218.13 103.5ZM252.999 139.25C251.133 139.25 249.416 138.883 247.849 138.15C246.283 137.417 244.933 136.4 243.799 135.1C242.699 133.767 241.833 132.217 241.199 130.45C240.599 128.65 240.299 126.717 240.299 124.65C240.299 121.783 240.866 119.067 241.999 116.5C243.166 113.933 244.733 111.65 246.699 109.65C248.666 107.65 250.883 106.083 253.349 104.95C255.816 103.817 258.399 103.25 261.099 103.25C264.266 103.25 266.833 103.967 268.799 105.4C270.799 106.8 272.133 108.667 272.799 111L266.849 114.8C266.416 113.033 265.533 111.683 264.199 110.75C262.899 109.817 261.366 109.35 259.599 109.35C257.966 109.35 256.399 109.767 254.899 110.6C253.433 111.4 252.133 112.483 250.999 113.85C249.866 115.217 248.966 116.767 248.299 118.5C247.666 120.233 247.349 122.033 247.349 123.9C247.349 125.633 247.649 127.2 248.249 128.6C248.849 130 249.716 131.117 250.849 131.95C251.983 132.75 253.333 133.15 254.899 133.15C256.599 133.15 258.316 132.683 260.049 131.75C261.783 130.817 263.499 129.45 265.199 127.65L263.749 134.45C262.016 136.083 260.266 137.3 258.499 138.1C256.733 138.867 254.899 139.25 252.999 139.25ZM265.099 125.8H258.349L259.449 120.75H271.899L267.999 139H262.299L265.099 125.8ZM281.363 103.55H288.213L280.662 139H273.813L281.363 103.55ZM299.72 139.4C297.22 139.4 294.804 139 292.47 138.2C290.137 137.367 288.154 136.233 286.52 134.8L290.82 128.85C291.02 129.15 291.42 129.55 292.02 130.05C292.62 130.517 293.387 131 294.32 131.5C295.254 131.967 296.304 132.367 297.47 132.7C298.637 133.033 299.87 133.2 301.17 133.2C302.504 133.2 303.604 133.033 304.47 132.7C305.37 132.333 306.037 131.833 306.47 131.2C306.904 130.533 307.12 129.767 307.12 128.9C307.12 128 306.787 127.283 306.12 126.75C305.487 126.217 304.604 125.75 303.47 125.35C302.337 124.917 301.037 124.467 299.57 124C297.904 123.467 296.504 122.867 295.37 122.2C294.237 121.533 293.37 120.733 292.77 119.8C292.204 118.833 291.92 117.683 291.92 116.35C291.92 114.283 292.32 112.433 293.12 110.8C293.954 109.167 295.07 107.8 296.47 106.7C297.904 105.567 299.52 104.717 301.32 104.15C303.12 103.55 305.004 103.25 306.97 103.25C308.537 103.25 309.987 103.433 311.32 103.8C312.687 104.167 313.92 104.65 315.02 105.25C316.154 105.85 317.137 106.5 317.97 107.2L313.72 112.8C313.62 112.567 313.32 112.25 312.82 111.85C312.32 111.45 311.687 111.067 310.92 110.7C310.154 110.333 309.304 110.017 308.37 109.75C307.437 109.45 306.47 109.3 305.47 109.3C304.17 109.3 303.054 109.5 302.12 109.9C301.22 110.3 300.554 110.85 300.12 111.55C299.687 112.25 299.47 113.083 299.47 114.05C299.47 114.783 299.72 115.4 300.22 115.9C300.754 116.4 301.504 116.833 302.47 117.2C303.437 117.533 304.62 117.917 306.02 118.35C307.787 118.85 309.32 119.45 310.62 120.15C311.954 120.85 312.987 121.733 313.72 122.8C314.454 123.833 314.82 125.167 314.82 126.8C314.82 129.033 314.387 130.95 313.52 132.55C312.687 134.15 311.554 135.45 310.12 136.45C308.687 137.45 307.07 138.2 305.27 138.7C303.504 139.167 301.654 139.4 299.72 139.4ZM331.61 109.55H320.96L322.21 103.5H350.36L349.06 109.55H338.46L332.21 139H325.31L331.61 109.55ZM354.8 103.5H377.8L376.55 109.55H360.35L358.55 118.1H372.5L371.3 123.7H357.35L355.4 132.95H372L370.7 139H347.25L354.8 103.5ZM376.156 139L383.706 103.5H398.706C400.506 103.5 402.04 103.967 403.306 104.9C404.573 105.833 405.54 107.05 406.206 108.55C406.906 110.05 407.256 111.633 407.256 113.3C407.256 114.6 407.04 115.883 406.606 117.15C406.206 118.383 405.623 119.55 404.856 120.65C404.09 121.75 403.19 122.733 402.156 123.6C401.156 124.467 400.056 125.15 398.856 125.65L403.656 139H395.856L391.656 127.1H385.506L383.006 139H376.156ZM394.756 121.05C395.456 121.05 396.123 120.867 396.756 120.5C397.39 120.1 397.956 119.583 398.456 118.95C398.99 118.283 399.406 117.533 399.706 116.7C400.006 115.833 400.156 114.933 400.156 114C400.156 113.133 400.006 112.367 399.706 111.7C399.44 111.033 399.056 110.517 398.556 110.15C398.09 109.75 397.556 109.55 396.956 109.55H389.256L386.806 121.05H394.756Z" fill="#3B2735"/>
<path d="M252.7 158.875C252.367 158.525 252.025 158.225 251.675 157.975C251.325 157.725 250.95 157.525 250.55 157.375C250.15 157.225 249.725 157.117 249.275 157.05C248.825 156.967 248.333 156.925 247.8 156.925C245.917 156.925 244.55 157.283 243.7 158C242.85 158.717 242.425 159.675 242.425 160.875C242.425 161.692 242.608 162.333 242.975 162.8C243.342 163.267 243.925 163.642 244.725 163.925C245.525 164.192 246.558 164.458 247.825 164.725C249.125 164.992 250.25 165.3 251.2 165.65C252.15 166 252.883 166.475 253.4 167.075C253.917 167.675 254.175 168.5 254.175 169.55C254.175 170.3 254.025 170.967 253.725 171.55C253.442 172.117 253.025 172.592 252.475 172.975C251.925 173.358 251.258 173.65 250.475 173.85C249.708 174.033 248.85 174.125 247.9 174.125C246.95 174.125 246.067 174.033 245.25 173.85C244.433 173.65 243.667 173.35 242.95 172.95C242.233 172.55 241.558 172.042 240.925 171.425L241.45 170.775C241.85 171.208 242.283 171.592 242.75 171.925C243.233 172.242 243.742 172.508 244.275 172.725C244.825 172.942 245.4 173.108 246 173.225C246.617 173.325 247.258 173.375 247.925 173.375C249.592 173.375 250.9 173.067 251.85 172.45C252.817 171.817 253.3 170.892 253.3 169.675C253.3 168.825 253.092 168.15 252.675 167.65C252.258 167.133 251.625 166.717 250.775 166.4C249.925 166.067 248.842 165.767 247.525 165.5C246.242 165.233 245.15 164.942 244.25 164.625C243.367 164.308 242.692 163.867 242.225 163.3C241.775 162.733 241.55 161.967 241.55 161C241.55 159.95 241.808 159.067 242.325 158.35C242.842 157.617 243.567 157.067 244.5 156.7C245.433 156.317 246.525 156.125 247.775 156.125C248.542 156.125 249.242 156.2 249.875 156.35C250.508 156.5 251.092 156.725 251.625 157.025C252.175 157.325 252.692 157.725 253.175 158.225L252.7 158.875ZM257.088 174V161H257.938V174H257.088ZM257.088 157.85V155.75H257.938V157.85H257.088ZM267.295 174.225C266.412 174.225 265.587 174.042 264.82 173.675C264.053 173.292 263.395 172.783 262.845 172.15C262.295 171.5 261.862 170.783 261.545 170C261.245 169.2 261.095 168.383 261.095 167.55C261.095 166.667 261.237 165.825 261.52 165.025C261.82 164.208 262.237 163.483 262.77 162.85C263.32 162.217 263.962 161.717 264.695 161.35C265.428 160.983 266.245 160.8 267.145 160.8C268.295 160.8 269.295 161.108 270.145 161.725C271.012 162.342 271.745 163.083 272.345 163.95V161H273.145V174.4C273.145 175.55 272.87 176.508 272.32 177.275C271.77 178.058 271.037 178.633 270.12 179C269.22 179.383 268.253 179.575 267.22 179.575C265.703 179.575 264.503 179.292 263.62 178.725C262.753 178.158 262.062 177.425 261.545 176.525L262.195 176.175C262.712 177.092 263.42 177.758 264.32 178.175C265.237 178.608 266.203 178.825 267.22 178.825C268.153 178.825 269.003 178.658 269.77 178.325C270.537 177.992 271.145 177.492 271.595 176.825C272.062 176.175 272.295 175.367 272.295 174.4V171.35C271.762 172.2 271.037 172.892 270.12 173.425C269.22 173.958 268.278 174.225 267.295 174.225ZM267.445 173.45C268.028 173.45 268.595 173.342 269.145 173.125C269.695 172.908 270.203 172.617 270.67 172.25C271.137 171.883 271.512 171.483 271.795 171.05C272.078 170.6 272.245 170.15 272.295 169.7V165.225C272.028 164.508 271.628 163.883 271.095 163.35C270.562 162.8 269.962 162.375 269.295 162.075C268.628 161.758 267.937 161.6 267.22 161.6C266.403 161.6 265.662 161.775 264.995 162.125C264.345 162.475 263.795 162.942 263.345 163.525C262.895 164.092 262.553 164.733 262.32 165.45C262.087 166.15 261.97 166.85 261.97 167.55C261.97 168.333 262.103 169.083 262.37 169.8C262.653 170.5 263.045 171.133 263.545 171.7C264.062 172.25 264.645 172.683 265.295 173C265.962 173.3 266.678 173.45 267.445 173.45ZM287.556 174H286.706V166.75C286.706 164.983 286.447 163.683 285.931 162.85C285.431 162.017 284.631 161.6 283.531 161.6C282.747 161.6 281.981 161.792 281.231 162.175C280.481 162.542 279.822 163.05 279.256 163.7C278.706 164.333 278.306 165.058 278.056 165.875V174H277.206V161H278.031V164.25C278.381 163.567 278.847 162.967 279.431 162.45C280.031 161.933 280.697 161.533 281.431 161.25C282.164 160.95 282.914 160.8 283.681 160.8C284.364 160.8 284.947 160.925 285.431 161.175C285.931 161.425 286.331 161.792 286.631 162.275C286.947 162.758 287.181 163.367 287.331 164.1C287.481 164.833 287.556 165.683 287.556 166.65V174ZM297.933 174V161H298.783V174H297.933ZM297.933 157.85V155.75H298.783V157.85H297.933ZM313.215 174H312.365V166.75C312.365 164.983 312.107 163.683 311.59 162.85C311.09 162.017 310.29 161.6 309.19 161.6C308.407 161.6 307.64 161.792 306.89 162.175C306.14 162.542 305.482 163.05 304.915 163.7C304.365 164.333 303.965 165.058 303.715 165.875V174H302.865V161H303.69V164.25C304.04 163.567 304.507 162.967 305.09 162.45C305.69 161.933 306.357 161.533 307.09 161.25C307.823 160.95 308.573 160.8 309.34 160.8C310.023 160.8 310.607 160.925 311.09 161.175C311.59 161.425 311.99 161.792 312.29 162.275C312.607 162.758 312.84 163.367 312.99 164.1C313.14 164.833 313.215 165.683 313.215 166.65V174ZM328.917 174.25C328.051 174.25 327.234 174.075 326.467 173.725C325.701 173.375 325.034 172.892 324.467 172.275C323.901 171.642 323.459 170.925 323.142 170.125C322.826 169.308 322.667 168.45 322.667 167.55C322.667 166.633 322.826 165.767 323.142 164.95C323.476 164.133 323.926 163.417 324.492 162.8C325.059 162.167 325.726 161.675 326.492 161.325C327.259 160.975 328.067 160.8 328.917 160.8C329.784 160.8 330.592 160.975 331.342 161.325C332.109 161.675 332.776 162.167 333.342 162.8C333.926 163.417 334.376 164.133 334.692 164.95C335.026 165.767 335.192 166.633 335.192 167.55C335.192 168.45 335.034 169.308 334.717 170.125C334.401 170.925 333.951 171.642 333.367 172.275C332.801 172.892 332.134 173.375 331.367 173.725C330.617 174.075 329.801 174.25 328.917 174.25ZM323.517 167.575C323.517 168.658 323.759 169.65 324.242 170.55C324.726 171.433 325.376 172.142 326.192 172.675C327.009 173.192 327.909 173.45 328.892 173.45C329.892 173.45 330.801 173.183 331.617 172.65C332.434 172.117 333.084 171.4 333.567 170.5C334.067 169.583 334.317 168.592 334.317 167.525C334.317 166.442 334.067 165.45 333.567 164.55C333.084 163.65 332.434 162.933 331.617 162.4C330.801 161.867 329.901 161.6 328.917 161.6C327.951 161.6 327.051 161.875 326.217 162.425C325.401 162.958 324.742 163.683 324.242 164.6C323.759 165.5 323.517 166.492 323.517 167.575ZM344.139 161.8C342.956 161.85 341.914 162.233 341.014 162.95C340.131 163.65 339.514 164.608 339.164 165.825V174H338.314V161H339.139V164.3C339.589 163.383 340.189 162.633 340.939 162.05C341.706 161.467 342.506 161.125 343.339 161.025C343.506 161.008 343.656 161 343.789 161C343.939 161 344.056 161 344.139 161V161.8ZM357.875 174.25C356.991 174.25 356.166 174.075 355.4 173.725C354.633 173.358 353.958 172.867 353.375 172.25C352.791 171.617 352.333 170.892 352 170.075C351.683 169.258 351.525 168.383 351.525 167.45C351.525 166.2 351.8 165.075 352.35 164.075C352.9 163.075 353.65 162.283 354.6 161.7C355.566 161.1 356.65 160.8 357.85 160.8C358.983 160.8 359.991 161.067 360.875 161.6C361.758 162.117 362.416 162.833 362.85 163.75L362.025 164.05C361.625 163.283 361.041 162.683 360.275 162.25C359.525 161.817 358.691 161.6 357.775 161.6C356.775 161.6 355.866 161.858 355.05 162.375C354.233 162.892 353.583 163.592 353.1 164.475C352.616 165.358 352.375 166.35 352.375 167.45C352.375 168.533 352.616 169.533 353.1 170.45C353.6 171.367 354.258 172.1 355.075 172.65C355.908 173.183 356.816 173.45 357.8 173.45C358.45 173.45 359.083 173.333 359.7 173.1C360.316 172.85 360.85 172.533 361.3 172.15C361.75 171.75 362.041 171.325 362.175 170.875L363.025 171.125C362.825 171.725 362.458 172.267 361.925 172.75C361.408 173.217 360.8 173.583 360.1 173.85C359.4 174.117 358.658 174.25 357.875 174.25ZM371.8 161.8C370.617 161.85 369.575 162.233 368.675 162.95C367.792 163.65 367.175 164.608 366.825 165.825V174H365.975V161H366.8V164.3C367.25 163.383 367.85 162.633 368.6 162.05C369.367 161.467 370.167 161.125 371 161.025C371.167 161.008 371.317 161 371.45 161C371.6 161 371.717 161 371.8 161V161.8ZM379.066 174.25C378.199 174.25 377.374 174.075 376.591 173.725C375.824 173.358 375.149 172.867 374.566 172.25C373.999 171.617 373.549 170.892 373.216 170.075C372.899 169.242 372.741 168.358 372.741 167.425C372.741 166.208 373.016 165.1 373.566 164.1C374.116 163.1 374.857 162.3 375.791 161.7C376.741 161.1 377.799 160.8 378.966 160.8C380.166 160.8 381.232 161.108 382.166 161.725C383.116 162.325 383.874 163.133 384.441 164.15C385.007 165.15 385.291 166.267 385.291 167.5C385.291 167.567 385.291 167.633 385.291 167.7C385.291 167.767 385.282 167.833 385.266 167.9H373.616C373.699 168.95 373.991 169.9 374.491 170.75C375.007 171.6 375.666 172.275 376.466 172.775C377.282 173.275 378.166 173.525 379.116 173.525C380.066 173.525 380.957 173.283 381.791 172.8C382.624 172.3 383.216 171.667 383.566 170.9L384.341 171.1C384.091 171.7 383.699 172.242 383.166 172.725C382.632 173.208 382.007 173.583 381.291 173.85C380.591 174.117 379.849 174.25 379.066 174.25ZM373.591 167.175H384.441C384.374 166.075 384.091 165.108 383.591 164.275C383.107 163.425 382.466 162.758 381.666 162.275C380.866 161.792 379.974 161.55 378.991 161.55C378.024 161.55 377.141 161.792 376.341 162.275C375.557 162.758 374.916 163.425 374.416 164.275C373.932 165.125 373.657 166.092 373.591 167.175ZM387.043 170.275C387.043 169.508 387.276 168.85 387.743 168.3C388.21 167.733 388.843 167.292 389.643 166.975C390.443 166.642 391.376 166.475 392.443 166.475C393.143 166.475 393.868 166.542 394.618 166.675C395.368 166.792 396.043 166.958 396.643 167.175V165.8C396.643 164.533 396.268 163.517 395.518 162.75C394.785 161.967 393.793 161.575 392.543 161.575C391.91 161.575 391.235 161.708 390.518 161.975C389.818 162.242 389.101 162.633 388.368 163.15L387.943 162.525C388.793 161.942 389.601 161.508 390.368 161.225C391.135 160.942 391.876 160.8 392.593 160.8C394.093 160.8 395.285 161.258 396.168 162.175C397.051 163.075 397.493 164.3 397.493 165.85V172.7C397.493 172.883 397.526 173.025 397.593 173.125C397.676 173.208 397.793 173.25 397.943 173.25V174C397.826 174 397.726 174 397.643 174C397.576 174 397.518 173.992 397.468 173.975C397.235 173.925 397.051 173.8 396.918 173.6C396.785 173.4 396.71 173.183 396.693 172.95V171.825C396.093 172.592 395.318 173.192 394.368 173.625C393.418 174.042 392.401 174.25 391.318 174.25C390.518 174.25 389.793 174.075 389.143 173.725C388.493 173.375 387.976 172.9 387.593 172.3C387.226 171.683 387.043 171.008 387.043 170.275ZM396.193 171.4C396.343 171.2 396.451 171.008 396.518 170.825C396.601 170.625 396.643 170.45 396.643 170.3V167.925C395.993 167.675 395.318 167.492 394.618 167.375C393.935 167.242 393.226 167.175 392.493 167.175C391.11 167.175 389.993 167.458 389.143 168.025C388.293 168.575 387.868 169.308 387.868 170.225C387.868 170.825 388.018 171.375 388.318 171.875C388.635 172.375 389.06 172.775 389.593 173.075C390.143 173.375 390.751 173.525 391.418 173.525C392.451 173.525 393.393 173.333 394.243 172.95C395.11 172.55 395.76 172.033 396.193 171.4ZM406.702 173.4C406.669 173.417 406.536 173.492 406.302 173.625C406.069 173.742 405.769 173.858 405.402 173.975C405.052 174.075 404.644 174.125 404.177 174.125C403.744 174.125 403.344 174.042 402.977 173.875C402.611 173.708 402.319 173.467 402.102 173.15C401.886 172.817 401.777 172.425 401.777 171.975V161.75H399.927V161H401.777V156.525H402.627V161H405.702V161.75H402.627V171.85C402.661 172.333 402.844 172.7 403.177 172.95C403.511 173.2 403.894 173.325 404.327 173.325C404.877 173.325 405.344 173.233 405.727 173.05C406.127 172.85 406.344 172.733 406.377 172.7L406.702 173.4ZM414.075 174.25C413.209 174.25 412.384 174.075 411.6 173.725C410.834 173.358 410.159 172.867 409.575 172.25C409.009 171.617 408.559 170.892 408.225 170.075C407.909 169.242 407.75 168.358 407.75 167.425C407.75 166.208 408.025 165.1 408.575 164.1C409.125 163.1 409.867 162.3 410.8 161.7C411.75 161.1 412.809 160.8 413.975 160.8C415.175 160.8 416.242 161.108 417.175 161.725C418.125 162.325 418.884 163.133 419.45 164.15C420.017 165.15 420.3 166.267 420.3 167.5C420.3 167.567 420.3 167.633 420.3 167.7C420.3 167.767 420.292 167.833 420.275 167.9H408.625C408.709 168.95 409 169.9 409.5 170.75C410.017 171.6 410.675 172.275 411.475 172.775C412.292 173.275 413.175 173.525 414.125 173.525C415.075 173.525 415.967 173.283 416.8 172.8C417.634 172.3 418.225 171.667 418.575 170.9L419.35 171.1C419.1 171.7 418.709 172.242 418.175 172.725C417.642 173.208 417.017 173.583 416.3 173.85C415.6 174.117 414.859 174.25 414.075 174.25ZM408.6 167.175H419.45C419.384 166.075 419.1 165.108 418.6 164.275C418.117 163.425 417.475 162.758 416.675 162.275C415.875 161.792 414.984 161.55 414 161.55C413.034 161.55 412.15 161.792 411.35 162.275C410.567 162.758 409.925 163.425 409.425 164.275C408.942 165.125 408.667 166.092 408.6 167.175ZM429.915 178.75C430.181 178.767 430.423 178.767 430.64 178.75C430.856 178.733 431.006 178.675 431.09 178.575C431.19 178.508 431.306 178.358 431.44 178.125C431.59 177.908 431.798 177.475 432.065 176.825C432.348 176.192 432.756 175.25 433.29 174L427.365 161H428.29L433.74 173.05L438.865 161H439.74L432.315 178.4C432.231 178.6 432.123 178.775 431.99 178.925C431.856 179.092 431.706 179.217 431.54 179.3C431.39 179.4 431.19 179.458 430.94 179.475C430.79 179.508 430.631 179.533 430.465 179.55C430.298 179.567 430.115 179.567 429.915 179.55V178.75ZM447.252 174.25C446.386 174.25 445.569 174.075 444.802 173.725C444.036 173.375 443.369 172.892 442.802 172.275C442.236 171.642 441.794 170.925 441.477 170.125C441.161 169.308 441.002 168.45 441.002 167.55C441.002 166.633 441.161 165.767 441.477 164.95C441.811 164.133 442.261 163.417 442.827 162.8C443.394 162.167 444.061 161.675 444.827 161.325C445.594 160.975 446.402 160.8 447.252 160.8C448.119 160.8 448.927 160.975 449.677 161.325C450.444 161.675 451.111 162.167 451.677 162.8C452.261 163.417 452.711 164.133 453.027 164.95C453.361 165.767 453.527 166.633 453.527 167.55C453.527 168.45 453.369 169.308 453.052 170.125C452.736 170.925 452.286 171.642 451.702 172.275C451.136 172.892 450.469 173.375 449.702 173.725C448.952 174.075 448.136 174.25 447.252 174.25ZM441.852 167.575C441.852 168.658 442.094 169.65 442.577 170.55C443.061 171.433 443.711 172.142 444.527 172.675C445.344 173.192 446.244 173.45 447.227 173.45C448.227 173.45 449.136 173.183 449.952 172.65C450.769 172.117 451.419 171.4 451.902 170.5C452.402 169.583 452.652 168.592 452.652 167.525C452.652 166.442 452.402 165.45 451.902 164.55C451.419 163.65 450.769 162.933 449.952 162.4C449.136 161.867 448.236 161.6 447.252 161.6C446.286 161.6 445.386 161.875 444.552 162.425C443.736 162.958 443.077 163.683 442.577 164.6C442.094 165.5 441.852 166.492 441.852 167.575ZM456.524 168.4V161H457.374V168.3C457.374 170.033 457.657 171.325 458.224 172.175C458.807 173.025 459.682 173.45 460.849 173.45C461.632 173.45 462.382 173.275 463.099 172.925C463.832 172.575 464.474 172.083 465.024 171.45C465.574 170.8 465.974 170.067 466.224 169.25V161H467.074V172.7C467.074 172.867 467.116 173 467.199 173.1C467.282 173.2 467.391 173.25 467.524 173.25V174C467.407 174 467.307 174 467.224 174C467.157 174 467.099 173.992 467.049 173.975C466.832 173.925 466.649 173.808 466.499 173.625C466.366 173.425 466.299 173.2 466.299 172.95L466.274 170.8C465.707 171.867 464.924 172.708 463.924 173.325C462.924 173.942 461.841 174.25 460.674 174.25C459.307 174.25 458.274 173.758 457.574 172.775C456.874 171.792 456.524 170.333 456.524 168.4ZM477 161.8C475.817 161.85 474.775 162.233 473.875 162.95C472.992 163.65 472.375 164.608 472.025 165.825V174H471.175V161H472V164.3C472.45 163.383 473.05 162.633 473.8 162.05C474.567 161.467 475.367 161.125 476.2 161.025C476.367 161.008 476.517 161 476.65 161C476.8 161 476.917 161 477 161V161.8ZM484.211 170.275C484.211 169.508 484.444 168.85 484.911 168.3C485.378 167.733 486.011 167.292 486.811 166.975C487.611 166.642 488.544 166.475 489.611 166.475C490.311 166.475 491.036 166.542 491.786 166.675C492.536 166.792 493.211 166.958 493.811 167.175V165.8C493.811 164.533 493.436 163.517 492.686 162.75C491.953 161.967 490.961 161.575 489.711 161.575C489.078 161.575 488.403 161.708 487.686 161.975C486.986 162.242 486.269 162.633 485.536 163.15L485.111 162.525C485.961 161.942 486.769 161.508 487.536 161.225C488.303 160.942 489.044 160.8 489.761 160.8C491.261 160.8 492.453 161.258 493.336 162.175C494.219 163.075 494.661 164.3 494.661 165.85V172.7C494.661 172.883 494.694 173.025 494.761 173.125C494.844 173.208 494.961 173.25 495.111 173.25V174C494.994 174 494.894 174 494.811 174C494.744 174 494.686 173.992 494.636 173.975C494.403 173.925 494.219 173.8 494.086 173.6C493.953 173.4 493.878 173.183 493.861 172.95V171.825C493.261 172.592 492.486 173.192 491.536 173.625C490.586 174.042 489.569 174.25 488.486 174.25C487.686 174.25 486.961 174.075 486.311 173.725C485.661 173.375 485.144 172.9 484.761 172.3C484.394 171.683 484.211 171.008 484.211 170.275ZM493.361 171.4C493.511 171.2 493.619 171.008 493.686 170.825C493.769 170.625 493.811 170.45 493.811 170.3V167.925C493.161 167.675 492.486 167.492 491.786 167.375C491.103 167.242 490.394 167.175 489.661 167.175C488.278 167.175 487.161 167.458 486.311 168.025C485.461 168.575 485.036 169.308 485.036 170.225C485.036 170.825 485.186 171.375 485.486 171.875C485.803 172.375 486.228 172.775 486.761 173.075C487.311 173.375 487.919 173.525 488.586 173.525C489.619 173.525 490.561 173.333 491.411 172.95C492.278 172.55 492.928 172.033 493.361 171.4ZM503.993 174.25C503.11 174.25 502.285 174.075 501.518 173.725C500.751 173.358 500.076 172.867 499.493 172.25C498.91 171.617 498.451 170.892 498.118 170.075C497.801 169.258 497.643 168.383 497.643 167.45C497.643 166.2 497.918 165.075 498.468 164.075C499.018 163.075 499.768 162.283 500.718 161.7C501.685 161.1 502.768 160.8 503.968 160.8C505.101 160.8 506.11 161.067 506.993 161.6C507.876 162.117 508.535 162.833 508.968 163.75L508.143 164.05C507.743 163.283 507.16 162.683 506.393 162.25C505.643 161.817 504.81 161.6 503.893 161.6C502.893 161.6 501.985 161.858 501.168 162.375C500.351 162.892 499.701 163.592 499.218 164.475C498.735 165.358 498.493 166.35 498.493 167.45C498.493 168.533 498.735 169.533 499.218 170.45C499.718 171.367 500.376 172.1 501.193 172.65C502.026 173.183 502.935 173.45 503.918 173.45C504.568 173.45 505.201 173.333 505.818 173.1C506.435 172.85 506.968 172.533 507.418 172.15C507.868 171.75 508.16 171.325 508.293 170.875L509.143 171.125C508.943 171.725 508.576 172.267 508.043 172.75C507.526 173.217 506.918 173.583 506.218 173.85C505.518 174.117 504.776 174.25 503.993 174.25ZM517.396 174.25C516.513 174.25 515.688 174.075 514.921 173.725C514.155 173.358 513.48 172.867 512.896 172.25C512.313 171.617 511.855 170.892 511.521 170.075C511.205 169.258 511.046 168.383 511.046 167.45C511.046 166.2 511.321 165.075 511.871 164.075C512.421 163.075 513.171 162.283 514.121 161.7C515.088 161.1 516.171 160.8 517.371 160.8C518.505 160.8 519.513 161.067 520.396 161.6C521.28 162.117 521.938 162.833 522.371 163.75L521.546 164.05C521.146 163.283 520.563 162.683 519.796 162.25C519.046 161.817 518.213 161.6 517.296 161.6C516.296 161.6 515.388 161.858 514.571 162.375C513.755 162.892 513.105 163.592 512.621 164.475C512.138 165.358 511.896 166.35 511.896 167.45C511.896 168.533 512.138 169.533 512.621 170.45C513.121 171.367 513.78 172.1 514.596 172.65C515.43 173.183 516.338 173.45 517.321 173.45C517.971 173.45 518.605 173.333 519.221 173.1C519.838 172.85 520.371 172.533 520.821 172.15C521.271 171.75 521.563 171.325 521.696 170.875L522.546 171.125C522.346 171.725 521.98 172.267 521.446 172.75C520.93 173.217 520.321 173.583 519.621 173.85C518.921 174.117 518.18 174.25 517.396 174.25ZM530.7 174.25C529.833 174.25 529.016 174.075 528.25 173.725C527.483 173.375 526.816 172.892 526.25 172.275C525.683 171.642 525.241 170.925 524.925 170.125C524.608 169.308 524.45 168.45 524.45 167.55C524.45 166.633 524.608 165.767 524.925 164.95C525.258 164.133 525.708 163.417 526.275 162.8C526.841 162.167 527.508 161.675 528.275 161.325C529.041 160.975 529.85 160.8 530.7 160.8C531.566 160.8 532.375 160.975 533.125 161.325C533.891 161.675 534.558 162.167 535.125 162.8C535.708 163.417 536.158 164.133 536.475 164.95C536.808 165.767 536.975 166.633 536.975 167.55C536.975 168.45 536.816 169.308 536.5 170.125C536.183 170.925 535.733 171.642 535.15 172.275C534.583 172.892 533.916 173.375 533.15 173.725C532.4 174.075 531.583 174.25 530.7 174.25ZM525.3 167.575C525.3 168.658 525.541 169.65 526.025 170.55C526.508 171.433 527.158 172.142 527.975 172.675C528.791 173.192 529.691 173.45 530.675 173.45C531.675 173.45 532.583 173.183 533.4 172.65C534.216 172.117 534.866 171.4 535.35 170.5C535.85 169.583 536.1 168.592 536.1 167.525C536.1 166.442 535.85 165.45 535.35 164.55C534.866 163.65 534.216 162.933 533.4 162.4C532.583 161.867 531.683 161.6 530.7 161.6C529.733 161.6 528.833 161.875 528 162.425C527.183 162.958 526.525 163.683 526.025 164.6C525.541 165.5 525.3 166.492 525.3 167.575ZM539.971 168.4V161H540.821V168.3C540.821 170.033 541.105 171.325 541.671 172.175C542.255 173.025 543.13 173.45 544.296 173.45C545.08 173.45 545.83 173.275 546.546 172.925C547.28 172.575 547.921 172.083 548.471 171.45C549.021 170.8 549.421 170.067 549.671 169.25V161H550.521V172.7C550.521 172.867 550.563 173 550.646 173.1C550.73 173.2 550.838 173.25 550.971 173.25V174C550.855 174 550.755 174 550.671 174C550.605 174 550.546 173.992 550.496 173.975C550.28 173.925 550.096 173.808 549.946 173.625C549.813 173.425 549.746 173.2 549.746 172.95L549.721 170.8C549.155 171.867 548.371 172.708 547.371 173.325C546.371 173.942 545.288 174.25 544.121 174.25C542.755 174.25 541.721 173.758 541.021 172.775C540.321 171.792 539.971 170.333 539.971 168.4ZM564.973 174H564.123V166.75C564.123 164.983 563.864 163.683 563.348 162.85C562.848 162.017 562.048 161.6 560.948 161.6C560.164 161.6 559.398 161.792 558.648 162.175C557.898 162.542 557.239 163.05 556.673 163.7C556.123 164.333 555.723 165.058 555.473 165.875V174H554.623V161H555.448V164.25C555.798 163.567 556.264 162.967 556.848 162.45C557.448 161.933 558.114 161.533 558.848 161.25C559.581 160.95 560.331 160.8 561.098 160.8C561.781 160.8 562.364 160.925 562.848 161.175C563.348 161.425 563.748 161.792 564.048 162.275C564.364 162.758 564.598 163.367 564.748 164.1C564.898 164.833 564.973 165.683 564.973 166.65V174ZM574.158 173.4C574.125 173.417 573.992 173.492 573.758 173.625C573.525 173.742 573.225 173.858 572.858 173.975C572.508 174.075 572.1 174.125 571.633 174.125C571.2 174.125 570.8 174.042 570.433 173.875C570.067 173.708 569.775 173.467 569.558 173.15C569.342 172.817 569.233 172.425 569.233 171.975V161.75H567.383V161H569.233V156.525H570.083V161H573.158V161.75H570.083V171.85C570.117 172.333 570.3 172.7 570.633 172.95C570.967 173.2 571.35 173.325 571.783 173.325C572.333 173.325 572.8 173.233 573.183 173.05C573.583 172.85 573.8 172.733 573.833 172.7L574.158 173.4Z" fill="#3B2735"/>
</svg>
